<svg width="383" height="359" viewBox="0 0 383 359" fill="none" xmlns="http://www.w3.org/2000/svg">
<path d="M216.073 52.5339C248.64 67.3761 268.578 93.6332 285.234 122.839C315.323 175.666 323.889 230.026 306.573 286.395C295.041 323.949 250.655 350.724 208.092 326.657C183.864 312.952 158.149 299.129 139.212 279.807C121.295 261.53 108.431 237.082 98.6779 213.517C87.8201 187.124 80.8606 158.915 76.1039 131.037C71.8923 106.383 71.1451 81.2912 82.704 57.5372C95.1913 31.8306 125.724 23.837 151.233 29.9618C162.618 32.7243 173.974 35.9559 185.081 39.7877C195.614 43.4284 205.746 48.1744 216.051 52.4746L216.073 52.5339ZM100.59 107.384C118.811 102.065 123.077 106.189 120.984 123.906C119.908 133.234 119.635 143.836 123.196 152.442C135.63 182.673 147.85 213.329 164.064 241.877C178.346 266.989 195.167 292.068 223.939 305.441C247.45 316.368 265.289 310.374 275.552 288.485C297.432 241.904 289.206 194.872 269.745 147.958C251.213 103.3 221.526 69.6843 172.339 53.2743C115.164 34.2097 100.235 48.8729 99.8481 104.449C99.8306 105.408 100.363 106.4 100.65 107.366L100.59 107.384Z" fill="black"/>
<path fill-rule="evenodd" clip-rule="evenodd" d="M191.383 139.365C190.992 137.044 190.697 134.749 190.507 132.454C190.22 129.012 190.397 125.543 190.295 122.1C190.251 120.64 190.076 116.832 190.147 116.284C190.786 111.512 194.638 110.781 195.764 110.651C196.309 110.573 201.906 109.947 203.114 116.154C204.595 123.743 205.07 131.385 204.546 138.87C205.769 145.233 207.86 151.571 210.622 157.309C221.613 180.129 242.555 182.346 265.245 182.137C268.735 182.085 271.632 184.823 271.815 188.292C271.997 191.787 269.4 194.812 265.926 195.125C253.243 196.351 230.741 206.522 222.961 217.111C221.333 219.328 220.387 224.674 219.135 229.917C217.388 237.193 215.309 244.391 212.98 247.416C212.631 247.886 208.382 252.685 207.114 253.389C204.068 255.058 201.63 254.093 200.245 253.206C198.86 252.319 197.293 250.572 196.667 247.677C196.012 244.652 196.565 238.444 196.463 237.114C196.093 232.29 195.128 222.822 193.159 214.685C192.098 210.304 190.966 206.261 189.093 204.253C182.161 196.82 171.077 197.916 161.743 199.142C160.671 199.272 159.599 199.429 158.529 199.559C154.73 200.68 150.695 201.515 146.431 202.01C139.991 202.767 138.933 196.846 138.875 196.455C138.755 195.595 138.309 191.161 143.163 189.388C143.692 189.205 147.599 188.344 149.104 188.005C151.201 187.536 153.321 187.171 155.449 186.832C177.432 179.999 189.372 160.803 191.383 139.365ZM198.928 163.073C207.227 180.233 219.821 188.527 234.749 192.282H234.747C225.426 197.159 216.947 203.262 212.453 209.391C210.747 211.712 209.183 216.381 207.772 221.623C207.008 216.746 205.975 211.556 204.611 207.122C203.059 202.062 200.97 197.864 198.638 195.36C194.137 190.535 188.488 187.849 182.414 186.519C189.685 180.077 195.198 172.044 198.928 163.073Z" fill="black"/>
</svg>
