<svg width="141" height="152" viewBox="0 0 141 152" fill="none" xmlns="http://www.w3.org/2000/svg">
<path fill-rule="evenodd" clip-rule="evenodd" d="M55.6094 30.4289C55.1957 27.9738 54.8839 25.5465 54.6826 23.1189C54.3791 19.4775 54.5667 15.8083 54.4591 12.167C54.4122 10.6222 54.2274 6.59467 54.3019 6.01536C54.9777 0.967122 59.0522 0.19462 60.2439 0.0566894C60.8204 -0.0260686 66.7404 -0.687837 68.0176 5.87763C69.5845 13.9052 70.0866 21.9878 69.5321 29.9049C70.8259 36.6359 73.0383 43.3392 75.9597 49.4081C87.5844 73.5459 109.736 75.8907 133.736 75.67C137.427 75.6149 140.492 78.5114 140.685 82.1803C140.878 85.8768 138.13 89.0768 134.456 89.4078C121.041 90.7044 97.2394 101.463 89.0105 112.663C87.2891 115.008 86.2878 120.663 84.9637 126.208C83.1154 133.904 80.9169 141.518 78.4534 144.718C78.0838 145.214 73.59 150.29 72.2493 151.035C69.0272 152.801 66.448 151.78 64.9832 150.842C63.5184 149.904 61.8604 148.056 61.1984 144.994C60.506 141.794 61.0908 135.228 60.9832 133.821C60.5915 128.718 59.5709 118.704 57.4881 110.097C56.3654 105.463 55.1681 101.187 53.1874 99.0629C45.8551 91.2009 34.131 92.3596 24.258 93.6562C23.1242 93.7941 21.9904 93.9597 20.8594 94.0976C16.8401 95.2838 12.5724 96.1664 8.06213 96.6906C1.25114 97.4906 0.131225 91.2285 0.0705359 90.8147C-0.0563598 89.9044 -0.52813 85.2149 4.60563 83.339C5.16562 83.1459 9.29805 82.2355 10.8898 81.8769C13.1077 81.3803 15.3504 80.9943 17.6014 80.6357C40.8536 73.4081 53.4826 53.1046 55.6094 30.4289ZM63.5901 55.5048C72.368 73.6564 85.6892 82.4287 101.479 86.401H101.477C91.6175 91.5596 82.6492 98.0149 77.8961 104.498C76.092 106.953 74.4369 111.891 72.9445 117.435C72.1362 112.277 71.0439 106.787 69.6011 102.097C67.9598 96.7456 65.75 92.3046 63.2838 89.6563C58.5225 84.5529 52.5473 81.7115 46.1225 80.3046C53.8135 73.4909 59.6453 64.9944 63.5901 55.5048Z" fill="black"/>
</svg>
