<svg width="243" height="308" viewBox="0 0 243 308" fill="none" xmlns="http://www.w3.org/2000/svg">
<path d="M143.073 24.5369C175.64 39.3791 195.578 65.6361 212.234 94.8415C242.323 147.669 250.889 202.029 233.573 258.398C222.041 295.952 177.655 322.727 135.092 298.66C110.864 284.955 85.1493 271.132 66.2115 251.81C48.2947 233.533 35.4313 209.084 25.6779 185.519C14.8201 159.127 7.86061 130.918 3.1039 103.04C-1.10769 78.3862 -1.85493 53.2941 9.70404 29.5401C22.1913 3.83353 52.7243 -4.16004 78.2327 1.96475C89.6182 4.72727 100.974 7.95885 112.081 11.7906C122.614 15.4313 132.746 20.1773 143.051 24.4776L143.073 24.5369ZM27.5897 79.3874C45.8114 74.0682 50.0765 78.1918 47.9839 95.9094C46.9082 105.237 46.6354 115.839 50.1959 124.445C62.6298 154.676 74.8504 185.332 91.064 213.88C105.346 238.991 122.167 264.071 150.939 277.444C174.45 288.371 192.289 282.377 202.552 260.488C224.432 213.906 216.206 166.875 196.745 119.961C178.213 75.3033 148.526 41.6872 99.3394 25.2772C42.1635 6.21262 27.2354 20.8758 26.8481 76.4521C26.8306 77.4108 27.3627 78.4028 27.6502 79.3694L27.5897 79.3874Z" fill="black"/>
</svg>
