<svg width="134" height="144" viewBox="0 0 134 144" fill="none" xmlns="http://www.w3.org/2000/svg">
<path fill-rule="evenodd" clip-rule="evenodd" d="M52.5743 28.771C52.1831 26.4499 51.8884 24.1551 51.698 21.86C51.4111 18.4174 51.5884 14.9484 51.4867 11.5058C51.4424 10.0453 51.2676 6.23766 51.3381 5.68997C51.977 0.917266 55.8291 0.186927 56.9557 0.056525C57.5008 -0.0217161 63.0977 -0.647365 64.3052 5.55976C65.7865 13.1491 66.2612 20.7906 65.737 28.2757C66.9602 34.6393 69.0519 40.9766 71.8138 46.7143C82.804 69.5346 103.746 71.7515 126.436 71.5429C129.926 71.4907 132.824 74.2291 133.006 77.6978C133.189 81.1926 130.591 84.2179 127.117 84.5308C114.434 85.7566 91.9321 95.9281 84.1523 106.517C82.5249 108.734 81.5782 114.08 80.3264 119.322C78.579 126.599 76.5004 133.797 74.1714 136.822C73.822 137.292 69.5734 142.09 68.3059 142.795C65.2597 144.464 62.8213 143.499 61.4364 142.612C60.0515 141.725 58.4841 139.978 57.8582 137.083C57.2035 134.058 57.7564 127.85 57.6547 126.52C57.2844 121.695 56.3195 112.228 54.3504 104.091C53.2889 99.7096 52.157 95.6672 50.2844 93.659C43.3523 86.2261 32.2681 87.3215 22.934 88.5473C21.8621 88.6777 20.7902 88.8343 19.7209 88.9647C15.921 90.0862 11.8862 90.9206 7.6221 91.4161C1.18285 92.1724 0.124063 86.2522 0.066686 85.861C-0.0532836 85.0003 -0.499305 80.5668 4.35425 78.7933C4.88368 78.6107 8.79056 77.75 10.2954 77.411C12.3923 76.9415 14.5125 76.5765 16.6407 76.2375C38.6238 69.4044 50.5635 50.2091 52.5743 28.771ZM60.1193 52.4783C68.4181 69.6392 81.0123 77.9326 95.9407 81.6882H95.9381C86.617 86.5652 78.1382 92.6682 73.6445 98.797C71.9389 101.118 70.3741 105.786 68.9632 111.029C68.199 106.152 67.1663 100.961 65.8023 96.5277C64.2505 91.4682 62.1614 87.2695 59.8298 84.7658C55.3283 79.9409 49.6793 77.2546 43.6052 75.9245C50.8764 69.4827 56.3898 61.4499 60.1193 52.4783Z" fill="black"/>
</svg>
