<svg width="134" height="156" viewBox="0 0 134 156" fill="none" xmlns="http://www.w3.org/2000/svg">
<path fill-rule="evenodd" clip-rule="evenodd" d="M57.8057 48.019C57.5616 46.4038 57.3777 44.8069 57.2589 43.2098C57.0799 40.8142 57.1906 38.4002 57.1271 36.0046C57.0995 34.9883 56.9904 32.3386 57.0344 31.9575C57.4331 28.6363 59.8367 28.128 60.5397 28.0373C60.8799 27.9828 64.3722 27.5475 65.1257 31.8669C66.0501 37.1481 66.3463 42.4656 66.0192 47.6743C66.7824 52.1026 68.0876 56.5126 69.811 60.5053C76.6688 76.3854 89.7366 77.9281 103.895 77.7829C106.072 77.7466 107.88 79.6522 107.994 82.066C108.108 84.4979 106.487 86.6031 104.32 86.8209C96.4057 87.6739 82.3646 94.752 77.5101 102.12C76.4946 103.663 75.9039 107.384 75.1227 111.031C74.0324 116.095 72.7354 121.104 71.2821 123.209C71.0641 123.536 68.413 126.875 67.6221 127.365C65.7213 128.527 64.1998 127.855 63.3356 127.238C62.4715 126.621 61.4934 125.405 61.1028 123.391C60.6944 121.285 61.0394 116.966 60.9759 116.04C60.7448 112.683 60.1427 106.095 58.914 100.432C58.2517 97.3835 57.5454 94.5704 56.3769 93.173C52.0513 88.0006 45.1349 88.7629 39.3105 89.6159C38.6417 89.7066 37.9728 89.8156 37.3056 89.9063C34.9345 90.6867 32.4169 91.2674 29.7561 91.6122C25.7381 92.1385 25.0774 88.0188 25.0416 87.7465C24.9668 87.1476 24.6884 84.0624 27.717 82.8283C28.0474 82.7013 30.4852 82.1023 31.4242 81.8664C32.7326 81.5397 34.0557 81.2857 35.3836 81.0498C49.1008 76.2948 56.551 62.9372 57.8057 48.019ZM62.5138 64.5163C67.6921 76.4582 75.5507 82.2294 84.8659 84.8428H84.8643C79.048 88.2366 73.7573 92.4835 70.9534 96.7484C69.889 98.3637 68.9126 101.612 68.0322 105.26C67.5554 101.866 66.911 98.2546 66.0599 95.1693C65.0916 91.6484 63.788 88.7267 62.3331 86.9844C59.5242 83.6269 55.9993 81.7576 52.2091 80.832C56.7463 76.3493 60.1866 70.7595 62.5138 64.5163Z" fill="black"/>
<path d="M85.9939 12.3799C85.997 12.3915 86.0053 12.4012 86.0163 12.4061C104.369 20.6091 114.819 36.8433 123.215 55.1532C135.12 81.1561 136.171 89.6664 129.924 110.314C125.825 123.865 120.771 137.693 108.455 144.677C92.069 153.969 71.2348 158.102 53.1243 152.919C44.6585 150.496 37.0074 146.721 32.1637 141.133C22.5255 130.015 10.3084 117.615 5.68744 102.667C0.550405 85.9224 2.03507 88.1155 0.534388 70.1202C-0.795661 54.2064 -0.0795407 37.847 7.77201 21.7963C16.2562 4.42717 34.4798 -2.1986 49.1162 0.630736C55.6477 1.9124 62.1405 3.50185 68.4597 5.49491C74.4458 7.38747 80.1478 10.019 85.9702 12.3531C85.9819 12.3578 85.9907 12.3677 85.9939 12.3799ZM15.9411 53.5417C26.842 49.2291 29.1468 51.7272 27.1088 63.399C26.0511 69.5427 25.4043 76.4816 27.0911 81.9412C30.4629 92.9354 34.5217 104.07 38.9107 114.945C45.1657 130.442 57.8057 143.44 74.4015 141.472C76.2157 141.257 77.9675 140.991 79.6181 140.7C88.0303 139.216 90.7124 139.813 98.158 135.626C103.523 132.609 111.974 122.796 114.585 117.221C124.801 95.407 121.293 99.0189 113.002 72.2768C104.216 43.9515 88.3998 23.3528 60.3885 14.8918C27.827 5.06367 18.4228 15.3298 15.6423 51.6581C15.5891 52.2723 15.8428 52.8832 15.9695 53.4889C15.9742 53.5111 15.9621 53.5333 15.9411 53.5417Z" fill="black"/>
</svg>
