<svg width="134" height="156" viewBox="0 0 134 156" fill="none" xmlns="http://www.w3.org/2000/svg">
<path d="M86.1688 12.6152C86.1719 12.6268 86.1802 12.6365 86.1912 12.6414C104.544 20.8444 114.994 37.0786 123.39 55.3885C135.295 81.3914 136.346 89.9017 130.099 110.549C126 124.1 120.946 137.928 108.63 144.912V144.912C92.2439 154.204 71.4097 158.337 53.2992 153.154C44.8334 150.731 37.1823 146.956 32.3386 141.368C22.7004 130.25 10.4833 117.85 5.86231 102.902C0.725279 86.1577 2.20994 88.3508 0.709262 70.3555C-0.620787 54.4417 0.0953333 38.0823 7.94688 22.0316C16.4311 4.66246 34.6547 -1.96331 49.2911 0.866028C55.8226 2.14769 62.3154 3.73714 68.6346 5.7302C74.6207 7.62276 80.3227 10.2543 86.1451 12.5884C86.1568 12.5931 86.1656 12.603 86.1688 12.6152V12.6152ZM16.116 53.777C27.0169 49.4644 29.3217 51.9625 27.2837 63.6343C26.226 69.778 25.5792 76.7169 27.266 82.1765C30.6378 93.1707 34.6966 104.305 39.0856 115.18C45.3406 130.677 57.9806 143.675 74.5764 141.707C76.3906 141.492 78.1424 141.226 79.793 140.935C88.2052 139.451 90.8873 140.048 98.3329 135.861V135.861C103.698 132.844 112.149 123.031 114.76 117.456C124.976 95.6423 121.468 99.2542 113.177 72.5121C104.391 44.1868 88.5747 23.5881 60.5634 15.1271C28.0019 5.29896 18.5977 15.5651 15.8172 51.8934C15.764 52.5076 16.0177 53.1185 16.1444 53.7242C16.1491 53.7464 16.137 53.7686 16.116 53.777V53.777Z" fill="black"/>
</svg>
