<svg width="417" height="460" viewBox="0 0 417 460" fill="none" xmlns="http://www.w3.org/2000/svg">
<path fill-rule="evenodd" clip-rule="evenodd" d="M92.2464 120.469C78.3641 70.9254 106.421 19.3339 155.552 4.05512C178.718 -3.15174 203.819 -0.673542 225.131 10.9172C246.447 22.5048 262.168 42.226 268.711 65.5894C269.884 69.7757 270.58 72.2744 270.58 72.2744C270.58 72.2744 270.58 72.2744 270.585 72.2744C290.177 57.8575 314.865 52.1974 338.779 56.6382C362.694 61.0838 383.7 75.2334 396.804 95.728C398.246 97.9832 399.692 100.242 401.133 102.497C429.59 147.003 418.635 205.956 376.088 237.268C417.594 271.838 425.51 332.531 394.255 376.595C394.084 376.832 393.918 377.071 393.749 377.31C379.468 397.441 357.436 410.7 332.962 413.89C308.489 417.081 283.792 409.914 264.827 394.118C264.827 394.118 264.297 395.763 263.378 398.616C255.92 421.721 239.257 440.724 217.32 451.135C195.39 461.545 170.13 462.44 147.515 453.609C98.5677 434.495 72.9712 380.569 89.1087 330.561C90.0276 327.709 90.559 326.063 90.559 326.063C39.3518 324.14 -0.900367 281.593 0.0153173 230.357C0.100718 225.556 0.186119 220.737 0.274682 215.936C0.708012 191.639 10.8976 168.538 28.5502 151.838C46.2012 135.137 69.8335 126.243 94.1173 127.154C94.1173 127.154 93.4167 124.655 92.2464 120.469Z" fill="#EEB357"/>
<path fill-rule="evenodd" clip-rule="evenodd" d="M179.649 178.454C205.426 156.74 246.102 164.453 270.435 195.664C294.763 226.875 293.593 269.842 267.816 291.556C242.042 313.269 201.365 305.556 177.033 274.345C152.705 243.134 153.876 200.167 179.649 178.454Z" fill="#B93900"/>
</svg>
