<svg width="404" height="460" viewBox="0 0 404 460" fill="none" xmlns="http://www.w3.org/2000/svg">
<path fill-rule="evenodd" clip-rule="evenodd" d="M23.9795 65.0812C25.3517 54.8245 0.226326 141.616 0.00789924 171.221C-0.648964 259.707 39.7252 341.32 96.915 373.5C188.607 425.092 228.08 407.464 275.769 405.457C332.164 403.083 370.905 346.223 392.53 259.406C411.762 182.185 414.03 36.9348 341.249 27.2746C295.288 21.1708 272.041 76.0011 263.901 130.062C264.221 132.377 263.553 132.368 263.901 130.062C255.909 72.8814 246.792 -8.31524 177.885 0.689062C150.17 4.31419 152.443 84.9683 145.186 114.631C147.188 128.178 141.957 127.821 145.186 114.631C125.664 -17.2824 20.9041 7.34845 5.49706 136.835" fill="#F3CA61"/>
<mask id="mask0_50_52" style="mask-type:luminance" maskUnits="userSpaceOnUse" x="54" y="362" width="297" height="98">
<path d="M54 362.98H350.359V460H54V362.98Z" fill="white"/>
</mask>
<g mask="url(#mask0_50_52)">
<mask id="mask1_50_52" style="mask-type:luminance" maskUnits="userSpaceOnUse" x="-24" y="50" width="405" height="410">
<path fill-rule="evenodd" clip-rule="evenodd" d="M0.802381 115.129C2.17354 104.874 -22.9311 191.65 -23.1493 221.25C-23.8057 309.721 16.5351 391.319 73.6776 423.494C165.294 475.077 204.734 457.452 252.383 455.446C308.732 453.072 347.44 396.222 369.048 309.42C388.263 232.213 390.53 86.9873 317.81 77.3287C271.886 71.226 248.659 126.047 240.525 180.099C240.845 182.413 240.177 182.404 240.525 180.099C232.54 122.928 223.431 41.745 154.58 50.7478C126.889 54.3723 129.16 135.012 121.908 164.67C123.909 178.215 118.682 177.858 121.908 164.67C102.402 32.7794 -2.27046 57.406 -17.6647 186.87" fill="white"/>
</mask>
<g mask="url(#mask1_50_52)">
<path fill-rule="evenodd" clip-rule="evenodd" d="M54.3169 403.153C87.2151 323.507 342.955 385.911 347.274 395.83C382.081 475.798 75.8916 519.446 54.3169 403.153Z" fill="#815E05"/>
</g>
</g>
</svg>
