<svg width="417" height="460" viewBox="0 0 417 460" fill="none" xmlns="http://www.w3.org/2000/svg">
<path fill-rule="evenodd" clip-rule="evenodd" d="M141.16 180.557C142.247 183.238 138.934 174.319 133.705 166.801C53.1255 50.8829 140.704 -63.8957 192.972 41.6545C207.921 71.8428 234.89 305.408 141.16 180.557Z" fill="#CFDC91"/>
<path fill-rule="evenodd" clip-rule="evenodd" d="M208.379 191.222C206.861 192.898 208.034 188.385 208.049 188.299C220.327 119.735 330.363 -62.4685 407.905 46.1042C474.735 139.667 146.457 307.37 208.049 188.299" fill="#CFDC91"/>
<path fill-rule="evenodd" clip-rule="evenodd" d="M226.035 219.733C214.591 223.737 279.778 213.32 294.493 216.931C417.372 247.098 469.795 402.16 341.789 380.376C327.003 377.86 132.939 216.708 262.393 215.571" fill="#CFDC91"/>
<path fill-rule="evenodd" clip-rule="evenodd" d="M217.968 235.423C204.361 234.955 222.942 271.483 224.778 277C238.121 317.105 228.451 362.173 218.44 401.96C178.084 562.336 48.0011 350.742 182.191 243.967C191.297 236.717 207.468 231.293 214.555 223" fill="#CFDC91"/>
<path fill-rule="evenodd" clip-rule="evenodd" d="M183.593 250.243C177.358 237.615 162.487 269.741 149.72 276.04C74.3577 313.236 -5.90986 250.555 0.343408 170.291C6.9147 85.9497 120.434 167.278 144.928 196.64C155.981 209.887 170.548 221.093 183.346 232.782C185.422 234.676 199.644 249.312 197.06 249.818" fill="#CFDC91"/>
<path fill-rule="evenodd" clip-rule="evenodd" d="M162.665 172.33C189.522 150.616 231.903 158.329 257.255 189.539C282.603 220.75 281.383 263.718 254.526 285.432C227.673 307.144 185.291 299.431 159.94 268.22C134.592 237.01 135.811 194.042 162.665 172.33Z" fill="#434343"/>
</svg>
