<svg width="425" height="468" viewBox="0 0 425 468" fill="none" xmlns="http://www.w3.org/2000/svg">
<g filter="url(#filter0_d_32_446)">
<path fill-rule="evenodd" clip-rule="evenodd" d="M96.2464 120.469C82.3641 70.9254 110.421 19.3339 159.552 4.05512C182.718 -3.15174 207.819 -0.673542 229.131 10.9172C250.447 22.5048 266.168 42.226 272.711 65.5894C273.884 69.7757 274.58 72.2744 274.58 72.2744C274.58 72.2744 274.58 72.2744 274.585 72.2744C294.177 57.8575 318.865 52.1974 342.779 56.6382C366.694 61.0838 387.7 75.2334 400.804 95.728C402.246 97.9832 403.692 100.242 405.133 102.497C433.59 147.003 422.635 205.956 380.088 237.268C421.594 271.838 429.51 332.531 398.255 376.595C398.084 376.832 397.918 377.071 397.749 377.31C383.468 397.441 361.436 410.7 336.962 413.89C312.489 417.081 287.792 409.914 268.827 394.118C268.827 394.118 268.297 395.763 267.378 398.616C259.92 421.721 243.257 440.724 221.32 451.135C199.39 461.545 174.13 462.44 151.515 453.609C102.568 434.495 76.9712 380.569 93.1087 330.561C94.0276 327.709 94.559 326.063 94.559 326.063C43.3518 324.14 3.09963 281.593 4.01532 230.357C4.10072 225.556 4.18612 220.737 4.27468 215.936C4.70801 191.639 14.8976 168.538 32.5502 151.838C50.2012 135.137 73.8335 126.243 98.1173 127.154C98.1173 127.154 97.4167 124.655 96.2464 120.469Z" fill="#EEB357"/>
<path fill-rule="evenodd" clip-rule="evenodd" d="M183.649 178.454C209.426 156.74 250.102 164.453 274.435 195.664C298.763 226.875 297.593 269.842 271.816 291.556C246.042 313.269 205.365 305.556 181.033 274.345C156.705 243.134 157.876 200.167 183.649 178.454Z" fill="#B93900"/>
</g>
<defs>
<filter id="filter0_d_32_446" x="0" y="0.00305176" width="424.933" height="467.64" filterUnits="userSpaceOnUse" color-interpolation-filters="sRGB">
<feFlood flood-opacity="0" result="BackgroundImageFix"/>
<feColorMatrix in="SourceAlpha" type="matrix" values="0 0 0 0 0 0 0 0 0 0 0 0 0 0 0 0 0 0 127 0" result="hardAlpha"/>
<feOffset dy="4"/>
<feGaussianBlur stdDeviation="2"/>
<feComposite in2="hardAlpha" operator="out"/>
<feColorMatrix type="matrix" values="0 0 0 0 0 0 0 0 0 0 0 0 0 0 0 0 0 0 0.25 0"/>
<feBlend mode="normal" in2="BackgroundImageFix" result="effect1_dropShadow_32_446"/>
<feBlend mode="normal" in="SourceGraphic" in2="effect1_dropShadow_32_446" result="shape"/>
</filter>
</defs>
</svg>
