<svg width="529" height="502" viewBox="0 0 529 502" fill="none" xmlns="http://www.w3.org/2000/svg">
<path fill-rule="evenodd" clip-rule="evenodd" d="M295.266 203.929C291.721 204.313 303.46 203.322 313.793 200.194C473.098 152.002 600.754 261.821 459.491 285.838C419.088 292.707 122.438 262.368 295.266 203.929Z" fill="#003885"/>
<path fill-rule="evenodd" clip-rule="evenodd" d="M227.99 178.864C226.533 180.541 227.659 176.027 227.673 175.942C239.457 107.378 345.068 -74.826 419.491 33.7467C483.633 127.309 168.559 295.013 227.673 175.942" fill="#003885"/>
<path fill-rule="evenodd" clip-rule="evenodd" d="M250.106 275.862C238.468 274.757 299.436 292.245 310.636 301.576C404.153 379.51 382.927 541.143 281.362 468.663C269.631 460.291 170.732 234.722 283.403 287.104" fill="#003885"/>
<path fill-rule="evenodd" clip-rule="evenodd" d="M226.896 247.098C217.645 238.02 204.714 278.54 202.078 284.039C182.909 324.008 143.997 353.132 108.605 377.898C-34.055 477.729 25.035 228.636 195.61 230.886C207.188 231.036 222.442 237.14 233.341 235.179" fill="#003885"/>
<path fill-rule="evenodd" clip-rule="evenodd" d="M231.675 193.278C225.691 180.649 211.418 212.776 199.164 219.075C126.833 256.27 49.7939 193.589 55.7957 113.325C62.1027 28.9842 171.056 110.313 194.565 139.675C205.174 152.921 219.154 164.128 231.438 175.816C233.431 177.711 247.08 192.346 244.601 192.852" fill="#003885"/>
<path fill-rule="evenodd" clip-rule="evenodd" d="M128.684 120.469C114.802 70.9254 142.859 19.3339 191.99 4.05512C215.155 -3.15174 240.257 -0.673542 261.569 10.9172C282.885 22.5048 298.606 42.226 305.149 65.5894C306.322 69.7757 307.018 72.2744 307.018 72.2744C307.018 72.2744 307.018 72.2744 307.023 72.2744C326.614 57.8575 351.303 52.1974 375.217 56.6382C399.132 61.0838 420.138 75.2334 433.242 95.728C434.684 97.9832 436.13 100.242 437.57 102.497C466.028 147.003 455.073 205.956 412.526 237.268C454.032 271.838 461.948 332.531 430.692 376.595C430.522 376.832 430.356 377.071 430.186 377.31C415.905 397.441 393.874 410.7 369.4 413.89C344.926 417.081 320.23 409.914 301.265 394.118C301.265 394.118 300.735 395.763 299.816 398.616C292.358 421.721 275.695 440.724 253.758 451.135C231.828 461.545 206.568 462.44 183.953 453.609C135.005 434.495 109.409 380.569 125.546 330.561C126.465 327.709 126.997 326.063 126.997 326.063C75.7895 324.14 35.5374 281.593 36.4531 230.357C36.5385 225.556 36.6239 220.737 36.7124 215.936C37.1458 191.639 47.3353 168.538 64.9879 151.838C82.639 135.137 106.271 126.243 130.555 127.154C130.555 127.154 129.854 124.655 128.684 120.469Z" fill="#5AA0FF"/>
<path fill-rule="evenodd" clip-rule="evenodd" d="M216.087 178.454C241.863 156.74 282.539 164.453 306.872 195.664C331.2 226.875 330.03 269.842 304.253 291.556C278.48 313.269 237.802 305.556 213.471 274.345C189.143 243.134 190.313 200.167 216.087 178.454Z" fill="#003885"/>
</svg>
