<svg width="401" height="533" viewBox="0 0 401 533" fill="none" xmlns="http://www.w3.org/2000/svg">
<path fill-rule="evenodd" clip-rule="evenodd" d="M135.191 229.658C136.234 233.067 133.058 221.723 128.048 212.16C50.8299 64.722 134.755 -81.2672 184.842 52.9842C199.168 91.3813 225.011 388.457 135.191 229.658Z" fill="#CFDC91"/>
<path fill-rule="evenodd" clip-rule="evenodd" d="M199.998 250.225C198.541 251.901 199.667 247.388 199.681 247.302C211.465 178.738 317.076 -3.46544 391.499 105.107C455.641 198.67 140.567 366.373 199.681 247.302" fill="#CFDC91"/>
<path fill-rule="evenodd" clip-rule="evenodd" d="M216.944 278.736C205.96 282.74 268.526 272.323 282.648 275.934C400.585 306.101 450.9 461.163 328.042 439.379C313.851 436.863 127.593 275.711 251.839 274.574" fill="#CFDC91"/>
<path fill-rule="evenodd" clip-rule="evenodd" d="M208.872 294.806C195.919 294.311 213.607 332.992 215.354 338.835C228.055 381.304 218.851 429.029 209.321 471.161C170.906 640.991 47.0816 416.924 174.816 303.853C183.484 296.177 198.877 290.433 205.623 281.651" fill="#CFDC91"/>
<path fill-rule="evenodd" clip-rule="evenodd" d="M176.209 309.246C170.225 296.618 155.952 328.744 143.698 335.043C71.3671 372.239 -5.67217 309.558 0.329596 229.294C6.63659 144.953 115.59 226.281 139.099 255.643C149.708 268.89 163.688 280.096 175.972 291.785C177.965 293.68 191.614 308.315 189.135 308.821" fill="#CFDC91"/>
<path fill-rule="evenodd" clip-rule="evenodd" d="M153.629 262.603C147.584 266.936 129.993 290.328 143.864 317.146C177.272 381.751 253.263 346.556 237.837 279.028C226.843 230.903 169.333 250.043 153.629 262.603Z" fill="#434343"/>
</svg>
