<svg width="529" height="460" viewBox="0 0 529 460" fill="none" xmlns="http://www.w3.org/2000/svg">
<path fill-rule="evenodd" clip-rule="evenodd" d="M295.266 203.926C291.721 204.31 303.46 203.319 313.793 200.191C473.098 151.999 600.754 261.818 459.491 285.835C419.088 292.704 122.438 262.365 295.266 203.926Z" fill="#003885"/>
<path fill-rule="evenodd" clip-rule="evenodd" d="M227.748 181.932C226.291 183.469 227.418 179.332 227.432 179.254C239.221 116.412 344.878 -50.5833 419.334 48.9271C483.504 134.68 168.291 288.386 227.432 179.254" fill="#003885"/>
<path fill-rule="evenodd" clip-rule="evenodd" d="M249.095 274.598C239.644 273.783 289.051 287.719 298.074 295.338C373.42 358.968 354.783 492.777 272.849 433.725C263.386 426.904 184.929 241.265 276.063 283.607" fill="#003885"/>
<path fill-rule="evenodd" clip-rule="evenodd" d="M226.896 247.095C217.645 238.017 204.714 278.537 202.078 284.036C182.909 324.005 143.997 353.129 108.605 377.895C-34.055 477.726 25.035 228.633 195.61 230.883C207.188 231.033 222.442 237.137 233.341 235.176" fill="#003885"/>
<path fill-rule="evenodd" clip-rule="evenodd" d="M231.675 193.275C225.691 180.646 211.418 212.773 199.164 219.072C126.833 256.267 49.7939 193.586 55.7957 113.322C62.1027 28.9812 171.056 110.309 194.565 139.671C205.174 152.918 219.154 164.125 231.438 175.813C233.431 177.708 247.08 192.343 244.601 192.849" fill="#003885"/>
<path fill-rule="evenodd" clip-rule="evenodd" d="M128.684 120.466C114.802 70.9224 142.859 19.3309 191.99 4.05207C215.155 -3.15479 240.257 -0.676594 261.569 10.9142C282.885 22.5018 298.606 42.223 305.149 65.5864C306.322 69.7726 307.018 72.2714 307.018 72.2714C307.018 72.2714 307.018 72.2714 307.023 72.2714C326.614 57.8545 351.303 52.1943 375.217 56.6351C399.132 61.0807 420.138 75.2303 433.242 95.7249C434.684 97.9801 436.13 100.239 437.57 102.494C466.028 147 455.073 205.953 412.526 237.265C454.032 271.835 461.948 332.528 430.692 376.592C430.522 376.829 430.356 377.068 430.186 377.307C415.905 397.438 393.874 410.697 369.4 413.887C344.926 417.078 320.23 409.911 301.265 394.115C301.265 394.115 300.735 395.76 299.816 398.613C292.358 421.718 275.695 440.721 253.758 451.132C231.828 461.542 206.568 462.437 183.953 453.606C135.005 434.492 109.409 380.566 125.546 330.558C126.465 327.706 126.997 326.06 126.997 326.06C75.7895 324.137 35.5374 281.59 36.4531 230.354C36.5385 225.553 36.6239 220.734 36.7124 215.933C37.1458 191.636 47.3353 168.535 64.9879 151.835C82.639 135.134 106.271 126.24 130.555 127.151C130.555 127.151 129.854 124.652 128.684 120.466Z" fill="#5AA0FF"/>
<path fill-rule="evenodd" clip-rule="evenodd" d="M216.087 178.451C241.863 156.737 282.539 164.45 306.872 195.661C331.2 226.872 330.03 269.839 304.253 291.553C278.48 313.265 237.802 305.553 213.471 274.342C189.143 243.131 190.313 200.163 216.087 178.451Z" fill="#003885"/>
</svg>
