<svg width="404" height="392" viewBox="0 0 404 392" fill="none" xmlns="http://www.w3.org/2000/svg">
<path fill-rule="evenodd" clip-rule="evenodd" d="M23.9795 55.4058C25.3517 46.6744 0.226326 120.559 0.00789924 145.761C-0.648964 221.088 39.7252 290.564 96.915 317.959C188.607 361.878 228.08 346.872 275.769 345.163C332.164 343.142 370.905 294.738 392.53 220.832C411.762 155.095 414.03 31.4452 341.249 23.2216C295.288 18.0255 272.041 64.7018 263.901 110.723C263.553 112.686 264.221 112.694 263.901 110.723C255.909 62.046 246.792 -7.0756 177.885 0.589641C150.17 3.67567 152.443 72.3354 145.186 97.5868C141.957 108.816 147.188 109.119 145.186 97.5868C125.663 -14.7092 20.9041 6.25869 5.49706 116.489" fill="#F3CA61"/>
<mask id="mask0_50_52" style="mask-type:luminance" maskUnits="userSpaceOnUse" x="54" y="309" width="297" height="83">
<path d="M54 309.003H350.359V391.595H54V309.003Z" fill="white"/>
</mask>
<g mask="url(#mask0_50_52)">
<mask id="mask1_50_52" style="mask-type:luminance" maskUnits="userSpaceOnUse" x="-24" y="42" width="405" height="350">
<path fill-rule="evenodd" clip-rule="evenodd" d="M0.802382 98.0106C2.17354 89.2807 -22.9311 163.152 -23.1493 188.35C-23.8057 263.664 16.5351 333.128 73.6776 360.518C165.294 404.43 204.734 389.426 252.383 387.718C308.732 385.697 347.44 337.302 369.048 263.408C388.263 197.683 390.53 74.0541 317.81 65.8319C271.886 60.6367 248.659 107.305 240.525 153.319C240.177 155.281 240.845 155.289 240.525 153.319C232.54 104.65 223.431 35.54 154.58 43.2039C126.889 46.2894 129.16 114.937 121.908 140.184C118.682 151.411 123.909 151.715 121.908 140.184C102.402 27.9077 -2.27046 48.872 -17.6647 159.083" fill="white"/>
</mask>
<g mask="url(#mask1_50_52)">
<path fill-rule="evenodd" clip-rule="evenodd" d="M54.3169 343.202C87.2151 275.4 342.955 328.524 347.274 336.968C382.081 405.043 75.8916 442.201 54.3169 343.202Z" fill="#815E05"/>
</g>
</g>
</svg>
