<svg width="627" height="381" viewBox="0 0 627 381" fill="none" xmlns="http://www.w3.org/2000/svg">
<path d="M224.807 225.986L216.477 210.888C215.072 208.341 214.827 205.313 215.806 202.574L269.408 52.5052C271.811 45.7755 280.351 43.4927 286.546 47.0555C287.772 47.7608 289.047 48.443 290.348 49.0711C292.259 49.994 293.96 51.3577 295.084 53.1578C317.662 89.2981 321.025 113.158 308.543 157.793C307.947 159.925 306.642 161.805 304.865 163.126L292.057 172.651C284.414 178.335 288.107 190.466 297.62 190.928L324.423 192.229C326.101 192.31 327.75 192.812 329.18 193.695C362.346 214.153 369.534 229.698 351.377 264.426C350.449 266.202 348.975 267.648 347.202 268.581L321.062 282.317C318.131 283.857 314.633 283.871 311.691 282.353L271.169 261.457C270.628 261.179 270.114 260.852 269.631 260.481L224.807 225.986ZM224.807 225.986L234.784 244.07C237.276 248.588 231.157 252.866 227.77 248.974V248.974M224.807 225.986L220.095 247.426C219.844 248.567 219.792 249.743 219.941 250.902L230.023 329.107C230.24 330.79 230.031 332.502 229.415 334.084L223.083 350.354C221.862 353.491 219.161 355.82 215.884 356.591C193.826 361.78 179.848 365.054 156.063 342.54C155.283 341.801 154.62 340.915 154.12 339.963C149.273 330.74 146.333 325.145 141.281 315.532M119.091 166.975L185.251 192.807C187.07 193.517 188.646 194.738 189.789 196.322L227.77 248.974M227.77 248.974L218.289 238.081L192.329 212.204C190.886 210.765 189.046 209.795 187.041 209.429C167.891 205.937 64.9452 187.735 40.9164 195.468C14.3934 204.003 14.8136 215.202 24.972 238.447C33.83 258.716 95.2158 276.104 110.786 280.223C113.106 280.837 115.549 280.56 117.697 279.492L136.263 270.26C145.078 265.876 154.343 275.352 149.763 284.067L139.734 303.146C138.181 306.101 138.18 309.631 139.733 312.587L141.281 315.532M202.072 112.285L197.61 185.022C197.508 186.68 197.905 188.33 198.749 189.761L211.055 210.616C214.236 216.007 222.495 212.422 220.729 206.417V206.417C220.295 204.94 220.522 203.348 221.353 202.052L242.19 169.522L260.274 133.487C263.137 127.785 270.49 126.107 275.541 130.005L276.873 131.033C280.415 133.765 281.75 138.495 280.159 142.675L272.186 163.627C271.651 165.031 270.812 166.299 269.727 167.34L252.514 183.855C251.154 185.161 250.184 186.819 249.713 188.644L249.046 191.231C247.17 198.508 253.58 205.228 260.937 203.699L269.848 201.846C270.536 201.703 271.237 201.632 271.94 201.634L306.834 201.726C308.754 201.731 310.633 202.28 312.253 203.311L319.889 208.168C321.988 209.503 323.523 211.562 324.203 213.954L331.449 239.431C333.039 245.022 329.617 250.804 323.95 252.099L307.12 255.945C304.823 256.47 302.414 256.179 300.308 255.122L257.228 233.501C256.764 233.268 256.282 233.071 255.788 232.912L241.868 228.428C239.617 227.702 237.182 227.787 234.986 228.666L213.829 237.135C210.375 238.517 207.955 241.678 207.522 245.373L205.446 263.069C205.349 263.893 205.354 264.725 205.46 265.548L210.499 304.638C210.664 305.919 210.583 307.219 210.261 308.469L207.007 321.089C205.972 325.107 202.594 328.09 198.479 328.62L177.14 331.371C175.154 331.627 173.138 331.29 171.344 330.402L141.281 315.532M141.281 315.532L179.571 255.188M179.571 255.188L120.436 224.534C118.952 223.765 117.302 223.374 115.631 223.397L111.122 223.457C100.25 223.602 97.1898 238.429 107.116 242.866L122.136 249.58C123.166 250.04 124.265 250.326 125.388 250.424L179.571 255.188Z" stroke="black" stroke-width="12" stroke-linecap="round"/>
<path d="M494.961 160.556L499.26 151.299C499.985 149.737 501.346 148.562 502.997 148.071L593.414 121.209C597.469 120.005 601.545 123.286 602.009 127.49C602.101 128.322 602.22 129.17 602.375 130.01C602.602 131.246 602.546 132.535 602.079 133.702C592.71 157.12 582.49 167.068 556.807 176.71C555.58 177.171 554.226 177.205 552.974 176.818L543.947 174.031C538.56 172.367 534.056 178.372 537.162 183.077L545.911 196.334C546.459 197.164 546.795 198.127 546.874 199.119C548.697 222.112 543.785 230.98 520.85 234.449C519.677 234.626 518.471 234.428 517.406 233.907L501.706 226.224C499.946 225.362 498.717 223.696 498.413 221.761L494.227 195.101C494.171 194.745 494.148 194.385 494.156 194.025L494.961 160.556ZM494.961 160.556L489.811 171.643C488.525 174.413 484.342 172.986 485.017 170.008V170.008M494.961 160.556L483.073 165.8C482.44 166.08 481.861 166.466 481.36 166.942L447.531 199.098C446.802 199.79 445.912 200.289 444.941 200.548L434.956 203.212C433.031 203.725 430.974 203.249 429.46 201.954C419.27 193.232 412.819 187.7 415.258 168.469C415.338 167.838 415.53 167.211 415.809 166.64C418.52 161.1 420.165 157.74 422.99 151.966M486.188 89.4314L496.98 130.063C497.277 131.18 497.245 132.36 496.887 133.46L485.017 170.008M485.017 170.008L486.906 161.671L490.19 140.225C490.372 139.033 490.192 137.814 489.666 136.729C484.639 126.361 457.343 70.8275 445.249 62.054C431.9 52.3697 426.698 56.4855 419.147 69.4639C412.562 80.781 425.718 116.18 429.194 125.057C429.712 126.379 430.698 127.449 431.959 128.102L442.859 133.742C448.035 136.42 446.748 144.158 440.984 145.017L428.365 146.897C426.411 147.188 424.724 148.422 423.856 150.197L422.99 151.966M541.321 109.947L505.019 133.244C504.191 133.775 503.542 134.542 503.154 135.445L497.495 148.614C496.032 152.018 500.632 154.709 502.882 151.767V151.767C503.436 151.043 504.276 150.595 505.185 150.538L528.007 149.118L551.541 145.158C555.266 144.532 558.637 147.457 558.542 151.233L558.517 152.229C558.45 154.876 556.657 157.166 554.104 157.868L541.31 161.385C540.452 161.62 539.553 161.663 538.677 161.508L524.771 159.061C523.672 158.867 522.541 158.984 521.504 159.397L520.035 159.983C515.904 161.631 514.935 167.042 518.238 170.021L522.238 173.63C522.546 173.908 522.826 174.218 523.07 174.554L535.226 191.253C535.895 192.172 536.289 193.262 536.363 194.396L536.713 199.741C536.809 201.21 536.362 202.663 535.457 203.824L525.822 216.192C523.707 218.906 519.749 219.293 517.149 217.039L509.429 210.345C508.375 209.431 507.672 208.179 507.44 206.804L502.706 178.668C502.655 178.365 502.581 178.066 502.484 177.774L499.76 169.558C499.319 168.229 498.428 167.096 497.24 166.354L485.798 159.21C483.93 158.044 481.575 157.993 479.658 159.077L470.481 164.272C470.053 164.514 469.657 164.807 469.301 165.146L452.392 181.219C451.838 181.745 451.189 182.161 450.479 182.444L443.314 185.302C441.033 186.212 438.427 185.642 436.735 183.862L427.961 174.631C427.145 173.772 426.601 172.691 426.398 171.524L422.99 151.966M422.99 151.966L465.199 149.159M465.199 149.159L459.166 110.197C459.015 109.219 458.625 108.294 458.03 107.504L456.425 105.372C452.555 100.229 444.403 103.951 445.754 110.244L447.798 119.765C447.938 120.418 448.186 121.042 448.532 121.613L465.199 149.159Z" stroke="black" stroke-width="8" stroke-linecap="round"/>
</svg>
