<svg width="233" height="539" viewBox="0 0 233 539" fill="none" xmlns="http://www.w3.org/2000/svg">
<path d="M6.72814 0.00305176C0.877472 70.4096 31.301 125.399 61.5294 174.237C91.7578 223.016 121.206 266.31 124.327 315.873C126.667 349.763 115.356 383.458 101.899 419.7C88.4425 456.137 73.0357 494.925 71.6705 539.003H90.517C88.5455 498.813 103.587 464.224 117.044 427.395C130.5 390.565 145.404 358.971 142.673 315.873C138.773 254.164 101.314 203.03 71.6705 155.328C42.2222 107.646 18.673 58.8907 23.7436 0.00305176H6.72814Z" fill="#090808"/>
<path d="M130 271.607C132.312 265.555 135.759 259.849 138.609 254.035C143.753 243.538 151.131 235.136 159.596 227.12C169.7 217.553 180.973 208.687 192.636 201.099C201.595 195.271 211.581 190.176 222.385 189.181C224.215 189.012 225.824 188.491 226.199 190.665C227.689 199.3 226.802 208.706 225.937 217.34C224.272 233.955 221.325 252.441 211.27 266.303C207.205 271.907 201.621 275.283 195.992 279.117C188.729 284.063 181.918 289.014 173.632 292.127C167.871 294.29 161.852 295.57 155.891 297.038C150.85 298.28 145.683 297.933 140.527 297.933C140.056 297.933 139.002 298.09 138.543 297.933C135.699 296.961 138.734 287.935 139.284 286.364C141.379 280.381 145.177 275.333 148.329 269.905C152.153 263.319 155.408 256.496 159.858 250.28C164.686 243.535 169.802 236.979 174.678 230.263C179.273 223.934 184.189 218.528 190.871 214.393C193.431 212.808 201.188 206.872 204.623 209.7C210.718 214.72 208.346 225.827 206.018 231.922C203.024 239.758 198.998 247.138 195.251 254.624C191.861 261.398 189 269.75 183.265 274.969C178.511 279.295 174.204 283.213 167.704 284.487C166.613 284.7 162.588 285.784 161.688 284.443C158.525 279.725 163.865 270.729 166.091 266.849C172.124 256.332 178.578 245.551 187.667 237.51C194.197 231.732 196.927 222.937 203.751 217.384" stroke="black" stroke-width="12" stroke-linecap="round"/>
<path d="M130 334.471C127.044 326.754 122.638 319.476 118.995 312.063C112.418 298.677 102.988 287.962 92.1656 277.739C79.2499 265.539 64.8381 254.233 49.9293 244.558C38.4767 237.125 25.711 230.627 11.8998 229.358C9.55962 229.143 7.50378 228.479 7.02427 231.251C5.11943 242.263 6.2525 254.258 7.3586 265.268C9.48721 286.456 13.2552 310.029 26.1086 327.707C31.3051 334.854 38.4429 339.159 45.6388 344.047C54.9242 350.355 63.6303 356.669 74.2235 360.638C81.5874 363.397 89.2817 365.029 96.9019 366.902C103.346 368.485 109.952 368.043 116.543 368.043C117.145 368.043 118.492 368.243 119.079 368.043C122.714 366.803 118.834 355.292 118.131 353.289C115.454 345.66 110.598 339.222 106.569 332.3C101.681 323.902 97.5195 315.201 91.8313 307.275C85.6591 298.673 79.1197 290.312 72.8862 281.748C67.0118 273.677 60.727 266.783 52.186 261.51C48.9123 259.489 38.9963 251.919 34.6061 255.525C26.8136 261.927 29.8463 276.091 32.823 283.864C36.65 293.856 41.7961 303.267 46.586 312.814C50.9199 321.452 54.5771 332.103 61.9092 338.758C67.986 344.274 73.4917 349.271 81.8015 350.895C83.1956 351.168 88.3416 352.55 89.491 350.84C93.5355 344.823 86.7091 333.351 83.8632 328.403C76.1501 314.992 67.8998 301.244 56.2814 290.99C47.9332 283.622 44.4437 272.406 35.7205 265.324" stroke="black" stroke-width="12" stroke-linecap="round"/>
<path d="M143.834 325.344C151.836 321.728 159.676 318.216 168.255 316.165C175.187 314.508 182.185 314.334 189.277 314.956C195.97 315.542 201.466 318.963 207.692 320.593" stroke="black" stroke-width="7.83303" stroke-linecap="round"/>
<path d="M207.692 320.593C208.433 323.804 205.093 328.314 202.845 330.238C199.818 332.828 196.514 334.398 193.136 336.394C190.196 338.131 186.985 339.102 183.774 340.209C178.906 341.887 173.447 344.229 168.175 343.624C163.633 343.103 160.262 341.499 156.288 339.289C152.979 337.449 148.703 334.844 146.73 331.471C146.51 331.094 144.025 329.294 144.676 328.671C145.211 328.157 150.345 328.747 151.243 328.761C154.88 328.814 158.15 327.532 161.716 327.221C163.949 327.027 166.124 326.829 168.34 326.529C169.904 326.317 171.568 326.004 173.142 325.92C174.732 325.835 176.069 325.083 177.684 325.444C178.38 325.6 180.217 324.716 180.699 325.407C182.29 327.682 178.25 331.898 176.851 333.27C174.522 335.552 170.235 336.247 167.172 337.302" stroke="black" stroke-width="7.83303" stroke-linecap="round"/>
</svg>
