<svg width="233" height="539" viewBox="0 0 233 539" fill="none" xmlns="http://www.w3.org/2000/svg">
<path d="M6.72814 0.00305176C0.877472 70.4096 31.301 125.399 61.5294 174.237C91.7578 223.016 121.206 266.31 124.327 315.873C126.667 349.763 115.356 383.458 101.899 419.7C88.4425 456.137 73.0357 494.926 71.6705 539.003H90.517C88.5455 498.813 103.587 464.224 117.044 427.395C130.5 390.565 145.404 358.971 142.673 315.873C138.773 254.164 101.314 203.03 71.6705 155.328C42.2222 107.646 18.673 58.8907 23.7436 0.00305176H6.72814Z" fill="#090808"/>
<path d="M130 271.607C132.312 265.555 135.759 259.849 138.609 254.035C143.753 243.538 151.131 235.136 159.596 227.12C169.7 217.553 180.973 208.687 192.636 201.099C201.595 195.271 211.581 190.176 222.385 189.181C224.215 189.012 225.824 188.491 226.199 190.665C227.689 199.3 226.802 208.706 225.937 217.34C224.272 233.955 221.325 252.441 211.27 266.303C207.205 271.907 201.621 275.283 195.992 279.117C188.729 284.063 181.918 289.014 173.632 292.127C167.871 294.29 161.852 295.57 155.891 297.038C150.85 298.28 145.683 297.933 140.527 297.933C140.056 297.933 139.002 298.09 138.543 297.933C135.699 296.961 138.734 287.935 139.284 286.364C141.379 280.381 145.177 275.333 148.329 269.905C152.153 263.319 155.408 256.496 159.858 250.28C164.686 243.535 169.802 236.979 174.678 230.263C179.273 223.934 184.189 218.528 190.871 214.393C193.431 212.808 201.188 206.872 204.623 209.7C210.718 214.72 208.346 225.827 206.018 231.922C203.024 239.758 198.998 247.138 195.251 254.624C191.861 261.398 189 269.75 183.265 274.969C178.511 279.295 174.204 283.213 167.704 284.487C166.613 284.7 162.588 285.784 161.688 284.443C158.525 279.725 163.865 270.729 166.091 266.849C172.124 256.332 178.578 245.551 187.667 237.51C194.197 231.732 196.927 222.937 203.751 217.384" stroke="black" stroke-width="12" stroke-linecap="round"/>
<path d="M130 334.471C127.044 326.754 122.638 319.476 118.995 312.063C112.418 298.677 102.988 287.962 92.1656 277.739C79.2499 265.539 64.8381 254.233 49.9293 244.558C38.4767 237.125 25.711 230.627 11.8998 229.358C9.55962 229.143 7.50378 228.479 7.02427 231.251C5.11943 242.263 6.2525 254.258 7.3586 265.268C9.48721 286.456 13.2552 310.029 26.1086 327.707C31.3051 334.854 38.4429 339.159 45.6388 344.047C54.9242 350.355 63.6303 356.669 74.2235 360.638C81.5874 363.397 89.2817 365.029 96.9019 366.902C103.346 368.485 109.952 368.043 116.543 368.043C117.145 368.043 118.492 368.243 119.079 368.043C122.714 366.803 118.834 355.292 118.131 353.289C115.454 345.66 110.598 339.222 106.569 332.3C101.681 323.902 97.5195 315.201 91.8313 307.275C85.6591 298.673 79.1197 290.312 72.8862 281.748C67.0118 273.677 60.727 266.783 52.186 261.51C48.9123 259.489 38.9963 251.919 34.6061 255.525C26.8136 261.927 29.8463 276.091 32.823 283.864C36.65 293.856 41.7961 303.267 46.586 312.814C50.9199 321.452 54.5771 332.103 61.9092 338.758C67.986 344.274 73.4917 349.271 81.8015 350.895C83.1956 351.168 88.3416 352.55 89.491 350.84C93.5355 344.823 86.7091 333.351 83.8632 328.403C76.1501 314.992 67.8998 301.244 56.2814 290.99C47.9332 283.622 44.4437 272.406 35.7205 265.324" stroke="black" stroke-width="12" stroke-linecap="round"/>
<path d="M143.834 325.344C151.836 321.728 159.676 318.216 168.255 316.165C175.187 314.508 182.185 314.334 189.277 314.956C195.97 315.543 201.466 318.963 207.692 320.593" stroke="black" stroke-width="7.83303" stroke-linecap="round"/>
<path d="M207.692 320.593C208.433 323.804 205.093 328.314 202.845 330.238C199.818 332.828 196.514 334.398 193.136 336.394C190.196 338.131 186.985 339.102 183.774 340.209C178.906 341.887 173.447 344.229 168.175 343.624C163.633 343.103 160.262 341.499 156.288 339.289C152.979 337.449 148.703 334.844 146.73 331.471C146.51 331.094 144.025 329.294 144.676 328.671C145.211 328.157 150.345 328.747 151.243 328.761C154.88 328.814 158.15 327.532 161.716 327.221C163.949 327.027 166.124 326.829 168.34 326.529C169.904 326.317 171.568 326.004 173.142 325.92C174.732 325.835 176.069 325.083 177.684 325.444C178.38 325.6 180.217 324.716 180.699 325.407C182.29 327.682 178.25 331.898 176.851 333.27C174.522 335.552 170.235 336.247 167.172 337.302" stroke="black" stroke-width="7.83303" stroke-linecap="round"/>
<path d="M100.063 245.335C92.0437 244.692 84.1999 244.037 76.4109 241.883C70.1165 240.142 64.4263 237.183 59.0131 233.544C53.905 230.109 51.0105 224.932 46.7393 220.867" stroke="black" stroke-width="7.17679" stroke-linecap="round"/>
<path d="M46.7393 220.868C47.5663 217.964 52.243 215.825 54.8978 215.278C58.4725 214.541 61.8182 214.744 65.4118 214.639C68.5392 214.548 71.5449 215.191 74.6098 215.725C79.2578 216.535 84.6738 217.074 88.6347 219.894C92.047 222.323 94.0401 225.102 96.2494 228.635C98.0884 231.576 100.364 235.559 100.453 239.139C100.463 239.538 101.659 242.082 100.861 242.294C100.204 242.469 96.3477 239.722 95.6333 239.314C92.7395 237.66 89.5492 237.241 86.5518 235.911C84.674 235.078 82.8422 234.274 80.9316 233.533C79.5837 233.01 78.1103 232.524 76.8108 231.895C75.4973 231.259 74.092 231.269 72.9567 230.265C72.4668 229.832 70.6028 229.727 70.5214 228.959C70.253 226.431 75.3608 224.837 77.0901 224.357C79.9686 223.558 83.7152 224.899 86.639 225.408" stroke="black" stroke-width="7.17679" stroke-linecap="round"/>
<path d="M126.145 404.327C133.926 408.395 141.526 412.4 148.432 417.888C154.012 422.322 158.465 427.723 162.35 433.689C166.016 439.319 166.714 445.755 169.271 451.661" stroke="black" stroke-width="7.83303" stroke-linecap="round"/>
<path d="M169.271 451.661C167.201 454.225 161.59 454.377 158.69 453.794C154.784 453.009 151.51 451.377 147.855 449.949C144.675 448.706 141.93 446.778 139.079 444.933C134.755 442.136 129.544 439.284 126.769 434.761C124.378 430.864 123.561 427.222 122.85 422.73C122.257 418.991 121.67 414.018 123.108 410.385C123.269 409.979 123.153 406.914 124.045 407.041C124.78 407.146 127.482 411.551 128.025 412.266C130.227 415.162 133.252 416.945 135.696 419.56C137.227 421.198 138.724 422.787 140.327 424.347C141.458 425.447 142.731 426.564 143.768 427.751C144.816 428.95 146.232 429.539 146.944 431.032C147.251 431.677 149.079 432.577 148.833 433.383C148.024 436.038 142.213 435.459 140.27 435.204C137.038 434.778 133.846 431.832 131.127 430.073" stroke="black" stroke-width="7.83303" stroke-linecap="round"/>
<path d="M130 380.475C132.967 384.459 136.906 387.936 141.001 390.644C148 395.273 154.454 400.908 161.746 405.052C164.403 406.563 167.256 407.579 170.105 408.636C173.49 409.893 176.785 411.351 180.295 412.221C184.313 413.216 188.551 414.215 192.708 414.127C197.044 414.035 201.452 412.879 205.457 411.225C209.444 409.579 214.985 407.002 215.983 402.179C216.466 399.846 206.613 384.493 205.457 382.495C203.805 379.641 211.185 390.078 209.385 387.316C205.917 381.995 200.467 378.123 196.035 373.676C190.672 368.295 184.616 364.397 177.639 361.473C172.75 359.424 167.66 357.823 162.375 357.334C158.806 357.004 155.176 357.178 151.597 357.178C148.69 357.178 146.41 357.353 143.643 358.145C141.877 358.65 140.247 359.477 138.499 359.994C137.737 360.219 136.817 360.102 136.179 360.634C135.199 361.45 134.754 362.396 134.026 363.464C133.684 363.965 130.351 370.038 131.174 370.803C132.018 371.588 133.433 371.947 134.445 372.425C136.037 373.176 137.446 374.209 138.89 375.212C141.736 377.189 144.743 379.274 148.144 380.091C153.761 381.44 159.095 383.626 164.583 385.396C167.234 386.251 169.805 387.387 172.621 387.387C174.157 387.387 176.326 387.832 177.541 386.705C181.192 383.318 179.258 377.486 175.179 375.298C173.447 374.368 171.568 373.835 169.769 373.065C168.929 372.704 168.134 372.599 167.239 372.482C166.732 372.415 165.29 372.008 165.716 372.297C166.374 372.744 167.64 372.891 168.371 373.221C170.026 373.967 171.624 374.949 173.082 376.037C176.51 378.595 180.084 381.601 182.979 384.77C186.211 388.309 189.503 392.496 193.575 395.068C195.737 396.433 197.756 396.348 200.201 396.348" stroke="black" stroke-width="9.15254" stroke-linecap="round"/>
<path d="M112 405.199C109.413 408.624 105.978 411.612 102.406 413.941C96.3024 417.92 90.6739 422.764 84.3149 426.327C81.9976 427.625 79.5096 428.499 77.0249 429.408C74.0729 430.488 71.1994 431.741 68.1378 432.489C64.6336 433.345 60.9384 434.203 57.3125 434.127C53.5316 434.048 49.6869 433.055 46.1946 431.633C42.7174 430.218 37.8851 428.002 37.015 423.857C36.5939 421.851 45.1866 408.653 46.1946 406.936C47.635 404.482 41.1994 413.454 42.769 411.08C45.7935 406.506 50.5465 403.177 54.4111 399.354C59.088 394.728 64.3701 391.377 70.4541 388.864C74.7182 387.102 79.157 385.726 83.7663 385.306C86.8781 385.022 90.0439 385.171 93.1654 385.171C95.7002 385.171 97.6887 385.322 100.102 386.003C101.642 386.437 103.064 387.148 104.588 387.592C105.253 387.786 106.055 387.685 106.612 388.142C107.466 388.844 107.854 389.657 108.489 390.575C108.787 391.006 111.694 396.226 110.976 396.884C110.24 397.559 109.006 397.868 108.123 398.278C106.735 398.924 105.507 399.812 104.247 400.675C101.765 402.374 99.1423 404.166 96.1765 404.869C91.2778 406.029 86.6263 407.908 81.8402 409.429C79.5286 410.164 77.2866 411.141 74.8305 411.141C73.4909 411.141 71.5997 411.524 70.5394 410.554C67.3562 407.643 69.0424 402.629 72.5996 400.748C74.1104 399.949 75.7484 399.491 77.3174 398.829C78.0507 398.519 78.7433 398.428 79.524 398.327C79.9664 398.27 81.2239 397.92 80.8527 398.168C80.2782 398.552 79.1745 398.68 78.5365 398.963C77.0936 399.604 75.7004 400.448 74.4282 401.384C71.4393 403.582 68.3217 406.167 65.7972 408.891C62.9784 411.933 60.1081 415.533 56.5567 417.743C54.6713 418.917 52.9109 418.844 50.7783 418.844" stroke="black" stroke-width="9.15254" stroke-linecap="round"/>
</svg>
