<svg width="227" height="539" viewBox="0 0 227 539" fill="none" xmlns="http://www.w3.org/2000/svg">
<path d="M0.728136 0.00305176C-5.12253 70.4096 25.301 125.399 55.5294 174.237C85.7578 223.016 115.206 266.31 118.327 315.873C120.667 349.763 109.356 383.458 95.899 419.7C82.4425 456.137 67.0357 494.926 65.6705 539.003H84.517C82.5455 498.813 97.5873 464.224 111.044 427.395C124.5 390.565 139.404 358.971 136.673 315.873C132.773 254.164 95.3139 203.03 65.6705 155.328C36.2222 107.646 12.673 58.8907 17.7436 0.00305176H0.728136Z" fill="#090808"/>
<path d="M124 271.607C126.312 265.555 129.759 259.849 132.609 254.035C137.753 243.538 145.131 235.136 153.596 227.12C163.7 217.553 174.973 208.687 186.636 201.099C195.595 195.271 205.581 190.176 216.385 189.181C218.215 189.012 219.824 188.491 220.199 190.665C221.689 199.3 220.802 208.706 219.937 217.34C218.272 233.955 215.325 252.441 205.27 266.303C201.205 271.907 195.621 275.283 189.992 279.117C182.729 284.063 175.918 289.014 167.632 292.127C161.871 294.29 155.852 295.57 149.891 297.038C144.85 298.28 139.683 297.933 134.527 297.933C134.056 297.933 133.002 298.09 132.543 297.933C129.699 296.961 132.734 287.935 133.284 286.364C135.379 280.381 139.177 275.333 142.329 269.905C146.153 263.319 149.408 256.496 153.858 250.28C158.686 243.535 163.802 236.979 168.678 230.263C173.273 223.934 178.189 218.528 184.871 214.393C187.431 212.808 195.188 206.872 198.623 209.7C204.718 214.72 202.346 225.827 200.018 231.922C197.024 239.758 192.998 247.138 189.251 254.624C185.861 261.398 183 269.75 177.265 274.969C172.511 279.295 168.204 283.213 161.704 284.487C160.613 284.7 156.588 285.784 155.688 284.443C152.525 279.725 157.865 270.729 160.091 266.849C166.124 256.332 172.578 245.551 181.667 237.51C188.197 231.732 190.927 222.937 197.751 217.384" stroke="black" stroke-width="12" stroke-linecap="round"/>
</svg>
