<svg width="233" height="539" viewBox="0 0 233 539" fill="none" xmlns="http://www.w3.org/2000/svg">
<path d="M6.72814 0.00305176C0.877472 70.4096 31.301 125.399 61.5294 174.237C91.7578 223.016 121.206 266.31 124.327 315.873C126.667 349.763 115.356 383.458 101.899 419.7C88.4425 456.137 73.0357 494.926 71.6705 539.003H90.517C88.5455 498.813 103.587 464.224 117.044 427.395C130.5 390.565 145.404 358.971 142.673 315.873C138.773 254.164 101.314 203.03 71.6705 155.328C42.2222 107.646 18.673 58.8907 23.7436 0.00305176H6.72814Z" fill="#090808"/>
<path d="M130 271.607C132.312 265.555 135.759 259.849 138.609 254.035C143.753 243.538 151.131 235.136 159.596 227.12C169.7 217.553 180.973 208.687 192.636 201.099C201.595 195.271 211.581 190.176 222.385 189.181C224.215 189.012 225.824 188.491 226.199 190.665C227.689 199.3 226.802 208.706 225.937 217.34C224.272 233.955 221.325 252.441 211.27 266.303C207.205 271.907 201.621 275.283 195.992 279.117C188.729 284.063 181.918 289.014 173.632 292.127C167.871 294.29 161.852 295.57 155.891 297.038C150.85 298.28 145.683 297.933 140.527 297.933C140.056 297.933 139.002 298.09 138.543 297.933C135.699 296.961 138.734 287.935 139.284 286.364C141.379 280.381 145.177 275.333 148.329 269.905C152.153 263.319 155.408 256.496 159.858 250.28C164.686 243.535 169.802 236.979 174.678 230.263C179.273 223.934 184.189 218.528 190.871 214.393C193.431 212.808 201.188 206.872 204.623 209.7C210.718 214.72 208.346 225.827 206.018 231.922C203.024 239.758 198.998 247.138 195.251 254.624C191.861 261.398 189 269.75 183.265 274.969C178.511 279.295 174.204 283.213 167.704 284.487C166.613 284.7 162.588 285.784 161.688 284.443C158.525 279.725 163.865 270.729 166.091 266.849C172.124 256.332 178.578 245.551 187.667 237.51C194.197 231.732 196.927 222.937 203.751 217.384" stroke="black" stroke-width="12" stroke-linecap="round"/>
<path d="M130 334.471C127.044 326.754 122.638 319.476 118.995 312.063C112.418 298.677 102.988 287.962 92.1656 277.739C79.2499 265.539 64.8381 254.233 49.9293 244.558C38.4767 237.125 25.711 230.627 11.8998 229.358C9.55962 229.143 7.50378 228.479 7.02427 231.251C5.11943 242.263 6.2525 254.258 7.3586 265.268C9.48721 286.456 13.2552 310.029 26.1086 327.707C31.3051 334.854 38.4429 339.159 45.6388 344.047C54.9242 350.355 63.6303 356.669 74.2235 360.638C81.5874 363.397 89.2817 365.029 96.9019 366.902C103.346 368.485 109.952 368.043 116.543 368.043C117.145 368.043 118.492 368.243 119.079 368.043C122.714 366.803 118.834 355.292 118.131 353.289C115.454 345.66 110.598 339.222 106.569 332.3C101.681 323.902 97.5195 315.201 91.8313 307.275C85.6591 298.673 79.1197 290.312 72.8862 281.748C67.0118 273.677 60.727 266.783 52.186 261.51C48.9123 259.489 38.9963 251.919 34.6061 255.525C26.8136 261.927 29.8463 276.091 32.823 283.864C36.65 293.856 41.7961 303.267 46.586 312.814C50.9199 321.452 54.5771 332.103 61.9092 338.758C67.986 344.274 73.4917 349.271 81.8015 350.895C83.1956 351.168 88.3416 352.55 89.491 350.84C93.5355 344.823 86.7091 333.351 83.8632 328.403C76.1501 314.992 67.8998 301.244 56.2814 290.99C47.9332 283.622 44.4437 272.406 35.7205 265.324" stroke="black" stroke-width="12" stroke-linecap="round"/>
<path d="M143.834 325.344C151.836 321.728 159.676 318.216 168.255 316.165C175.187 314.508 182.185 314.334 189.277 314.956C195.97 315.543 201.466 318.963 207.692 320.593" stroke="black" stroke-width="7.83303" stroke-linecap="round"/>
<path d="M207.692 320.593C208.433 323.804 205.093 328.314 202.845 330.238C199.818 332.828 196.514 334.398 193.136 336.394C190.196 338.131 186.985 339.102 183.774 340.209C178.906 341.887 173.447 344.229 168.175 343.624C163.633 343.103 160.262 341.499 156.288 339.289C152.979 337.449 148.703 334.844 146.73 331.471C146.51 331.094 144.025 329.294 144.676 328.671C145.211 328.157 150.345 328.747 151.243 328.761C154.88 328.814 158.15 327.532 161.716 327.221C163.949 327.027 166.124 326.829 168.34 326.529C169.904 326.317 171.568 326.004 173.142 325.92C174.732 325.835 176.069 325.083 177.684 325.444C178.38 325.6 180.217 324.716 180.699 325.407C182.29 327.682 178.25 331.898 176.851 333.27C174.522 335.552 170.235 336.247 167.172 337.302" stroke="black" stroke-width="7.83303" stroke-linecap="round"/>
<path d="M100.063 245.335C92.0438 244.692 84.2 244.037 76.4109 241.883C70.1166 240.142 64.4263 237.183 59.0132 233.544C53.9051 230.109 51.0106 224.932 46.7394 220.867" stroke="black" stroke-width="7.17679" stroke-linecap="round"/>
<path d="M46.7393 220.868C47.5664 217.964 52.243 215.825 54.8978 215.278C58.4725 214.541 61.8182 214.744 65.4118 214.639C68.5392 214.548 71.545 215.191 74.6099 215.725C79.2578 216.535 84.6738 217.074 88.6348 219.894C92.047 222.323 94.0402 225.102 96.2494 228.635C98.0884 231.576 100.364 235.559 100.453 239.139C100.463 239.538 101.659 242.082 100.861 242.294C100.204 242.469 96.3477 239.722 95.6334 239.314C92.7396 237.66 89.5493 237.241 86.5518 235.911C84.674 235.078 82.8423 234.274 80.9316 233.533C79.5837 233.01 78.1103 232.524 76.8108 231.895C75.4973 231.259 74.0921 231.269 72.9568 230.265C72.4669 229.832 70.6029 229.727 70.5214 228.959C70.253 226.431 75.3609 224.837 77.0901 224.357C79.9686 223.558 83.7152 224.899 86.6391 225.408" stroke="black" stroke-width="7.17679" stroke-linecap="round"/>
<path d="M75.063 201.335C67.0438 200.692 59.2 200.037 51.4109 197.883C45.1166 196.142 39.4263 193.183 34.0132 189.544C28.9051 186.109 26.0106 180.932 21.7394 176.867" stroke="black" stroke-width="7.17679" stroke-linecap="round"/>
<path d="M21.7393 176.868C22.5664 173.964 27.243 171.825 29.8978 171.278C33.4725 170.541 36.8182 170.744 40.4118 170.639C43.5392 170.548 46.545 171.191 49.6099 171.725C54.2578 172.535 59.6738 173.074 63.6348 175.894C67.047 178.323 69.0402 181.102 71.2494 184.635C73.0884 187.576 75.3645 191.559 75.4534 195.139C75.4633 195.538 76.6591 198.082 75.8613 198.294C75.2041 198.469 71.3477 195.722 70.6334 195.314C67.7396 193.66 64.5493 193.241 61.5518 191.911C59.674 191.078 57.8423 190.274 55.9316 189.533C54.5837 189.01 53.1103 188.524 51.8108 187.895C50.4973 187.259 49.0921 187.269 47.9568 186.265C47.4669 185.832 45.6029 185.727 45.5214 184.959C45.253 182.431 50.3609 180.837 52.0901 180.357C54.9686 179.558 58.7152 180.899 61.6391 181.408" stroke="black" stroke-width="7.17679" stroke-linecap="round"/>
<path d="M90.7202 471.195C84.6095 470.704 78.6325 470.206 72.6972 468.564C67.9009 467.238 63.5649 464.983 59.4401 462.21C55.5477 459.593 53.342 455.647 50.0874 452.55" stroke="black" stroke-width="5.46875" stroke-linecap="round"/>
<path d="M50.0874 452.55C50.7176 450.338 54.2813 448.708 56.3042 448.291C59.0282 447.729 61.5776 447.884 64.316 447.804C66.699 447.735 68.9894 448.225 71.3249 448.632C74.8666 449.249 78.9937 449.66 82.0119 451.809C84.6121 453.66 86.1309 455.777 87.8143 458.469C89.2157 460.71 90.95 463.746 91.0178 466.473C91.0253 466.777 91.9366 468.716 91.3286 468.878C90.8278 469.011 87.8892 466.918 87.3449 466.607C85.1398 465.347 82.7088 465.027 80.4247 464.013C78.9938 463.379 77.598 462.766 76.1421 462.201C75.115 461.803 73.9922 461.433 73.002 460.953C72.0011 460.469 70.9303 460.477 70.0652 459.711C69.6919 459.381 68.2716 459.301 68.2095 458.716C68.005 456.789 71.8972 455.575 73.2149 455.209C75.4083 454.6 78.2632 455.622 80.4912 456.011" stroke="black" stroke-width="5.46875" stroke-linecap="round"/>
<path d="M125.767 523.955C122.063 519.154 118.425 514.469 113.865 510.431C110.18 507.168 105.977 504.785 101.459 502.854C97.196 501.033 92.746 501.322 88.4306 500.286" stroke="black" stroke-width="5.46875" stroke-linecap="round"/>
<path d="M88.4309 500.286C86.9428 501.995 87.5204 505.822 88.2677 507.723C89.2739 510.281 90.7782 512.311 92.1902 514.623C93.4191 516.635 95.0603 518.27 96.6572 519.987C99.079 522.59 101.646 525.79 105.05 527.138C107.983 528.3 110.552 528.422 113.685 528.373C116.293 528.332 119.737 528.141 122.026 526.734C122.282 526.577 124.375 526.292 124.181 525.702C124.02 525.215 120.705 523.903 120.154 523.619C117.923 522.468 116.347 520.625 114.277 519.275C112.98 518.43 111.72 517.602 110.468 516.699C109.584 516.061 108.672 515.33 107.742 514.766C106.801 514.197 106.23 513.305 105.131 512.999C104.656 512.867 103.824 511.733 103.307 511.995C101.604 512.859 102.702 516.736 103.111 518.024C103.792 520.169 106.177 521.986 107.701 523.624" stroke="black" stroke-width="5.46875" stroke-linecap="round"/>
<path d="M79.4446 509.058C70.0834 508.307 60.927 507.543 51.8345 505.029C44.4869 502.996 37.8444 499.542 31.5255 495.294C25.5625 491.285 22.1837 485.241 17.1977 480.496" stroke="black" stroke-width="8.37776" stroke-linecap="round"/>
<path d="M17.1978 480.497C18.1633 477.107 23.6225 474.611 26.7215 473.972C30.8944 473.111 34.8 473.348 38.995 473.226C42.6457 473.119 46.1544 473.87 49.7322 474.494C55.1579 475.439 61.4803 476.068 66.1041 479.36C70.0873 482.196 72.414 485.44 74.9929 489.564C77.1397 492.997 79.7966 497.647 79.9004 501.825C79.912 502.292 81.3079 505.261 80.3765 505.509C79.6094 505.713 75.1077 502.506 74.2738 502.03C70.8957 500.099 67.1716 499.61 63.6725 498.057C61.4805 497.085 59.3422 496.146 57.1119 495.281C55.5384 494.671 53.8184 494.104 52.3015 493.369C50.7682 492.627 49.1278 492.639 47.8025 491.467C47.2306 490.961 45.0547 490.839 44.9596 489.943C44.6463 486.99 50.6089 485.131 52.6275 484.57C55.9877 483.637 60.3612 485.202 63.7744 485.797" stroke="black" stroke-width="8.37776" stroke-linecap="round"/>
<path d="M126.145 404.327C133.926 408.395 141.526 412.4 148.432 417.888C154.012 422.322 158.465 427.723 162.35 433.689C166.016 439.319 166.714 445.755 169.271 451.661" stroke="black" stroke-width="7.83303" stroke-linecap="round"/>
<path d="M169.271 451.661C167.201 454.225 161.59 454.377 158.69 453.794C154.784 453.009 151.51 451.377 147.855 449.949C144.675 448.706 141.929 446.778 139.079 444.933C134.755 442.136 129.544 439.284 126.769 434.761C124.377 430.864 123.561 427.222 122.849 422.73C122.257 418.991 121.67 414.018 123.108 410.385C123.269 409.979 123.153 406.914 124.045 407.041C124.78 407.146 127.482 411.551 128.025 412.266C130.227 415.162 133.252 416.945 135.696 419.56C137.227 421.198 138.724 422.787 140.327 424.347C141.458 425.447 142.731 426.564 143.768 427.751C144.816 428.95 146.232 429.539 146.944 431.032C147.251 431.677 149.079 432.577 148.833 433.383C148.024 436.038 142.213 435.459 140.27 435.204C137.038 434.778 133.846 431.832 131.127 430.073" stroke="black" stroke-width="7.83303" stroke-linecap="round"/>
<path d="M112.207 230.669C115.182 222.408 118.118 214.334 122.618 206.748C126.254 200.618 131.001 195.472 136.384 190.814C141.464 186.418 147.746 184.853 153.25 181.519" stroke="black" stroke-width="7.83303" stroke-linecap="round"/>
<path d="M153.25 181.518C156.072 183.221 156.984 188.759 156.8 191.712C156.553 195.688 155.38 199.153 154.461 202.968C153.661 206.288 152.123 209.269 150.683 212.344C148.498 217.007 146.379 222.557 142.275 225.921C138.739 228.819 135.241 230.122 130.887 231.436C127.263 232.531 122.416 233.787 118.621 232.855C118.198 232.751 115.176 233.282 115.181 232.381C115.185 231.639 119.183 228.364 119.817 227.729C122.388 225.155 123.744 221.915 126.003 219.139C127.418 217.4 128.79 215.701 130.117 213.901C131.054 212.631 131.988 211.219 133.023 210.03C134.069 208.829 134.46 207.346 135.843 206.438C136.44 206.046 137.084 204.113 137.916 204.247C140.656 204.689 140.871 210.525 140.881 212.484C140.899 215.744 138.413 219.306 137.039 222.239" stroke="black" stroke-width="7.83303" stroke-linecap="round"/>
<path d="M130 380.475C132.967 384.459 136.906 387.936 141.001 390.644C148 395.273 154.454 400.908 161.746 405.052C164.403 406.563 167.256 407.579 170.105 408.636C173.49 409.893 176.785 411.351 180.295 412.221C184.313 413.216 188.551 414.215 192.708 414.127C197.044 414.035 201.452 412.879 205.457 411.225C209.444 409.579 214.985 407.002 215.983 402.179C216.466 399.846 206.613 384.493 205.457 382.495C203.805 379.641 211.185 390.078 209.385 387.316C205.917 381.995 200.467 378.123 196.035 373.676C190.672 368.295 184.616 364.397 177.639 361.473C172.75 359.424 167.66 357.823 162.375 357.334C158.806 357.004 155.176 357.178 151.597 357.178C148.69 357.178 146.41 357.353 143.643 358.145C141.877 358.65 140.247 359.477 138.499 359.994C137.737 360.219 136.817 360.102 136.179 360.634C135.199 361.45 134.754 362.396 134.026 363.464C133.684 363.965 130.351 370.038 131.174 370.803C132.018 371.588 133.433 371.947 134.445 372.425C136.037 373.176 137.446 374.209 138.89 375.212C141.736 377.189 144.743 379.274 148.144 380.091C153.761 381.44 159.095 383.626 164.583 385.396C167.234 386.251 169.805 387.387 172.621 387.387C174.157 387.387 176.326 387.832 177.541 386.705C181.192 383.318 179.258 377.486 175.179 375.298C173.447 374.368 171.568 373.835 169.769 373.065C168.929 372.704 168.134 372.599 167.239 372.482C166.732 372.415 165.29 372.008 165.716 372.297C166.374 372.744 167.64 372.891 168.371 373.221C170.026 373.967 171.624 374.949 173.082 376.037C176.51 378.595 180.084 381.601 182.979 384.77C186.211 388.309 189.503 392.496 193.575 395.068C195.737 396.433 197.756 396.348 200.201 396.348" stroke="black" stroke-width="9.15254" stroke-linecap="round"/>
<path d="M134.816 109.866C130.385 112.11 126.288 115.399 122.921 118.974C117.168 125.082 110.516 130.481 105.19 136.96C103.249 139.321 101.761 141.959 100.234 144.587C98.4194 147.708 96.4213 150.706 94.9662 154.018C93.3006 157.807 91.5949 161.813 90.9734 165.924C90.3254 170.212 90.7134 174.753 91.6606 178.981C92.6037 183.19 94.1991 189.089 98.781 190.894C100.998 191.767 117.805 184.674 119.97 183.875C123.064 182.734 111.523 188.228 114.551 186.925C120.385 184.414 125.129 179.703 130.266 176.094C136.482 171.726 141.355 166.422 145.424 160.046C148.277 155.577 150.721 150.834 152.103 145.71C153.037 142.25 153.484 138.643 154.094 135.116C154.589 132.252 154.805 129.975 154.496 127.114C154.299 125.287 153.761 123.54 153.55 121.73C153.458 120.941 153.73 120.054 153.315 119.334C152.678 118.23 151.821 117.631 150.893 116.731C150.457 116.309 145.041 111.99 144.147 112.671C143.229 113.368 142.635 114.702 141.992 115.618C140.98 117.058 139.722 118.27 138.487 119.523C136.055 121.99 133.488 124.598 132.104 127.81C129.817 133.115 126.754 137.999 124.075 143.105C122.782 145.571 121.224 147.911 120.744 150.686C120.482 152.2 119.674 154.261 120.578 155.651C123.293 159.825 129.37 158.913 132.221 155.266C133.432 153.718 134.277 151.958 135.343 150.316C135.841 149.549 136.081 148.785 136.349 147.922C136.5 147.434 137.147 146.082 136.79 146.453C136.238 147.026 135.876 148.248 135.427 148.912C134.41 150.415 133.17 151.822 131.849 153.074C128.746 156.016 125.174 159.026 121.558 161.339C117.521 163.921 112.834 166.451 109.606 170.025C107.892 171.923 107.632 173.927 107.216 176.336" stroke="black" stroke-width="9.15254" stroke-linecap="round"/>
<path d="M97.294 457.264C98.1344 461.184 99.8588 465.057 101.956 468.42C105.539 474.166 108.385 480.467 112.346 485.955C113.79 487.956 115.543 489.659 117.279 491.391C119.342 493.449 121.271 495.625 123.555 497.441C126.17 499.52 128.945 501.675 132.026 503.005C135.239 504.393 138.863 505.024 142.357 505.154C145.836 505.283 150.767 505.251 153.118 502.047C154.255 500.496 152.175 485.922 151.997 484.068C151.743 481.418 153.657 491.555 153.263 488.924C152.503 483.855 149.802 479.184 148.042 474.433C145.911 468.684 142.774 463.791 138.635 459.304C135.734 456.159 132.536 453.276 128.82 451.144C126.312 449.704 123.59 448.614 120.963 447.413C118.829 446.437 117.097 445.801 114.8 445.453C113.335 445.232 111.86 445.292 110.404 445.084C109.77 444.994 109.134 444.599 108.487 444.775C107.494 445.045 106.85 445.591 105.957 446.13C105.538 446.383 101.054 449.722 101.401 450.56C101.757 451.419 102.676 452.157 103.258 452.848C104.174 453.933 104.861 455.164 105.585 456.385C107.011 458.791 108.518 461.33 110.74 463.071C114.41 465.946 117.591 469.341 121.025 472.481C122.684 473.998 124.189 475.695 126.256 476.64C127.383 477.155 128.826 478.21 130.096 477.79C133.912 476.529 134.45 471.6 132.19 468.625C131.231 467.361 130.031 466.34 128.969 465.171C128.473 464.624 127.926 464.28 127.308 463.894C126.958 463.675 126.036 462.892 126.252 463.247C126.585 463.796 127.464 464.329 127.891 464.816C128.855 465.919 129.698 467.176 130.403 468.464C132.06 471.491 133.675 474.897 134.737 478.195C135.921 481.876 136.932 486.054 139.058 489.308C140.186 491.035 141.697 491.65 143.491 492.471" stroke="black" stroke-width="7.38626" stroke-linecap="round"/>
<path d="M112 405.199C109.413 408.624 105.978 411.612 102.406 413.941C96.3024 417.92 90.6739 422.764 84.3149 426.327C81.9976 427.625 79.5096 428.499 77.0249 429.408C74.0729 430.488 71.1994 431.741 68.1378 432.489C64.6336 433.345 60.9384 434.203 57.3125 434.127C53.5316 434.048 49.6869 433.055 46.1946 431.633C42.7174 430.218 37.8851 428.002 37.015 423.857C36.5939 421.851 45.1866 408.653 46.1946 406.936C47.635 404.482 41.1994 413.454 42.769 411.08C45.7935 406.506 50.5465 403.177 54.4111 399.354C59.088 394.728 64.3701 391.377 70.4541 388.864C74.7182 387.102 79.157 385.726 83.7663 385.306C86.8781 385.022 90.0439 385.171 93.1654 385.171C95.7002 385.171 97.6887 385.322 100.102 386.003C101.642 386.437 103.064 387.148 104.588 387.592C105.253 387.786 106.055 387.685 106.612 388.142C107.466 388.844 107.854 389.657 108.489 390.575C108.787 391.006 111.694 396.226 110.976 396.884C110.24 397.559 109.006 397.868 108.123 398.278C106.735 398.924 105.507 399.812 104.247 400.675C101.765 402.374 99.1423 404.166 96.1765 404.869C91.2778 406.029 86.6263 407.908 81.8402 409.429C79.5286 410.164 77.2866 411.141 74.8305 411.141C73.4909 411.141 71.5997 411.524 70.5394 410.554C67.3562 407.643 69.0424 402.629 72.5996 400.748C74.1104 399.949 75.7484 399.491 77.3174 398.829C78.0507 398.519 78.7433 398.428 79.524 398.327C79.9664 398.27 81.2239 397.92 80.8527 398.168C80.2782 398.552 79.1745 398.68 78.5365 398.963C77.0936 399.604 75.7004 400.448 74.4282 401.384C71.4393 403.582 68.3217 406.167 65.7972 408.891C62.9784 411.933 60.1081 415.533 56.5567 417.743C54.6713 418.917 52.9109 418.844 50.7783 418.844" stroke="black" stroke-width="9.15254" stroke-linecap="round"/>
</svg>
